
        <svg xmlns="http://www.w3.org/2000/svg" xmlns:xlink="http://www.w3.org/1999/xlink" version="1.1" width="3162.1621621621625" 
        height="684.3243243243245" viewBox="0 0 3162.1621621621625 684.3243243243245">
			<rect fill="#1e2022" width="3162.1621621621625" height="684.3243243243245"/>
			<g transform="scale(8.108108108108109) translate(10, 10)">
				<defs id="SvgjsDefs7821"></defs><g id="SvgjsG7822" featureKey="G09qjj-0" transform="matrix(1.4000000000000001,0,0,1.4000000000000001,-9.8,-12.600000000000001)" fill="#2289f7"><metadata xmlns="http://www.w3.org/2000/svg"><sfw xmlns="http://ns.adobe.com/SaveForWeb/1.0/"><slices><slicesourcebounds y="-8160" x="-8165" width="16389" height="16384" bottomleftorigin="true"></slicesourcebounds><optimizationsettings><targetsettings fileformat="PNG24Format" targetsettingsid="0"><png24format transparency="true" mattecolor="" nomattecolor="false" interlaced="false" filtered="false"></png24format></targetsettings></optimizationsettings></slices></sfw></metadata><g xmlns="http://www.w3.org/2000/svg"><path d="M56,9H8c-0.552,0-1,0.448-1,1v44c0,0.553,0.448,1,1,1h48c0.553,0,1-0.447,1-1V10C57,9.448,56.553,9,56,9z M30.707,32.707   l-10,10C20.512,42.902,20.256,43,20,43s-0.512-0.098-0.707-0.293c-0.391-0.391-0.391-1.023,0-1.414L28.586,32l-9.293-9.293   c-0.391-0.391-0.391-1.023,0-1.414s1.023-0.391,1.414,0l10,10C31.098,31.684,31.098,32.316,30.707,32.707z M44,43H34   c-0.553,0-1-0.447-1-1s0.447-1,1-1h10c0.553,0,1,0.447,1,1S44.553,43,44,43z"></path></g></g><g id="SvgjsG7823" featureKey="0yvIkK-0" transform="matrix(4.234724566983993,0,0,4.234724566983993,84.1560786032993,-23.22262161539384)" fill="#ffffff"><path d="M7.84 5.72 c1.52 0 2.72 0.41334 3.6 1.24 s1.32 1.94 1.32 3.34 c0 1.41334 -0.44 2.53 -1.32 3.35 s-2.07334 1.23 -3.58 1.23 l-3.34 0 l0 5.12 l-3.14 0 l0 -14.28 l6.46 0 z M7.02 12.44 c0.90666 0 1.58334 -0.16666 2.03 -0.5 s0.67 -0.88 0.67 -1.64 c0 -0.73334 -0.21666 -1.27334 -0.65 -1.62 s-1.11 -0.52 -2.03 -0.52 l-2.52 0 l0 4.28 l2.5 0 z M19.44 9.38 c1.65334 0 2.96 0.50334 3.92 1.51 s1.44 2.32332 1.44 3.94998 c0 1.64 -0.49 2.95666 -1.47 3.95 s-2.27666 1.49 -3.89 1.49 c-1.64 0 -2.94 -0.50334 -3.9 -1.51 s-1.44 -2.31666 -1.44 -3.93 c0 -1.66666 0.49 -2.99332 1.47 -3.97998 s2.27 -1.48 3.87 -1.48 z M16.94 14.84 c0 1.05334 0.21334 1.86664 0.64 2.43998 s1.04666 0.86 1.86 0.86 c0.84 0 1.47 -0.29334 1.89 -0.88 s0.63 -1.39332 0.63 -2.41998 c0 -1.06666 -0.21666 -1.88666 -0.65 -2.46 s-1.06334 -0.86 -1.89 -0.86 c-0.8 0 -1.41334 0.28666 -1.84 0.86 s-0.64 1.39334 -0.64 2.46 z M30.88 9.38 c1.38666 0 2.46992 0.28002 3.24992 0.84002 s1.21666 1.38 1.31 2.46 l-2.7 0 c-0.04 -0.49334 -0.22 -0.85 -0.54 -1.07 s-0.78666 -0.33 -1.4 -0.33 c-0.53334 0 -0.93 0.08 -1.19 0.24 s-0.39 0.4 -0.39 0.72 c0 0.24 0.08666 0.44 0.26 0.6 s0.43668 0.3 0.79002 0.42 s0.74334 0.22 1.17 0.3 c1.29334 0.25334 2.20668 0.51334 2.74002 0.78 s0.92334 0.58666 1.17 0.96 s0.37 0.83334 0.37 1.38 c0 1.16 -0.42334 2.05 -1.27 2.67 s-1.99666 0.93 -3.45 0.93 c-1.52 0 -2.70334 -0.32666 -3.55 -0.98 s-1.28332 -1.54 -1.30998 -2.66 l2.7 0 c0 0.53334 0.20666 0.95668 0.62 1.27002 s0.93334 0.47 1.56 0.47 c0.53334 0 0.97668 -0.11666 1.33002 -0.35 s0.53 -0.55668 0.53 -0.97002 c0 -0.26666 -0.11 -0.48666 -0.33 -0.66 s-0.53 -0.32668 -0.93 -0.46002 s-1.02 -0.28668 -1.86 -0.46002 c-0.66666 -0.13334 -1.26 -0.31334 -1.78 -0.54 s-0.91666 -0.52332 -1.19 -0.88998 s-0.41 -0.81666 -0.41 -1.35 c0 -0.68 0.16334 -1.27334 0.49 -1.78 s0.82666 -0.89 1.5 -1.15 s1.51 -0.39 2.51 -0.39 z M40.22 5.72 l0 5.38 l0.06 0 c0.32 -0.53334 0.75334 -0.95334 1.3 -1.26 s1.12666 -0.46 1.74 -0.46 c1.32 0 2.27666 0.33334 2.87 1 s0.89 1.72 0.89 3.16 l0 6.46 l-2.84 0 l0 -5.88 c0 -0.84 -0.13666 -1.46666 -0.41 -1.88 s-0.74334 -0.62 -1.41 -0.62 c-0.76 0 -1.31666 0.23 -1.67 0.69 s-0.53 1.21666 -0.53 2.27 l0 5.42 l-2.84 0 l0 -14.28 l2.84 0 z M52.62 5.72 l-0.00002 8.94 c0 1.05334 0.23666 1.82334 0.71 2.31 s1.21668 0.73 2.23002 0.73 c1.09334 0 1.86 -0.24334 2.3 -0.73 s0.66 -1.25666 0.66 -2.31 l0 -8.94 l3.14 0 l0 8.94 c0 1.78666 -0.51 3.18 -1.53 4.18 s-2.54334 1.5 -4.57 1.5 c-2.06666 0 -3.59666 -0.5 -4.59 -1.5 s-1.49 -2.39334 -1.49 -4.18 l0 -8.94 l3.14 0 z M67.5 5.72 l0 14.28 l-3.14 0 l0 -14.28 l3.14 0 z"></path></g>
			</g>
		</svg>
	